<svg width="121" height="120" viewBox="0 0 121 120" fill="none" xmlns="http://www.w3.org/2000/svg">
<g opacity="0.7" clip-path="url(#clip0_8_689)">
<path d="M59.0933 104.531V109.219C59.0933 111.797 56.984 113.906 54.4061 113.906H7.53099C4.95287 113.906 2.84351 111.797 2.84351 109.219V34.2187C2.84351 31.6405 4.95287 29.5314 7.53099 29.5314H32.3749M17.6093 60.0001H30.0312M17.6093 69.375H30.0312M17.6093 78.75H30.0312M17.6093 88.125H30.0312M17.6093 97.5H30.0312M61.9063 15.4685V10.781C61.9063 8.20264 64.0157 6.09351 66.5938 6.09351H113.469C116.047 6.09351 118.156 8.20264 118.156 10.781V85.7808C118.156 88.3589 116.047 90.4683 113.469 90.4683H90.9685M90.9685 36.5624H103.39M90.9685 45.9374H103.39M90.9685 55.3121H103.39M90.9685 64.6871H103.39M90.9685 74.0621H103.39M52.607 76.1925C53.6435 75.1559 54.874 74.3337 56.2282 73.7727C57.5825 73.2117 59.034 72.9229 60.4998 72.9229C61.9657 72.9229 63.4172 73.2117 64.7714 73.7727C66.1257 74.3337 67.3562 75.1559 68.3926 76.1925M52.2967 55.5259L45.2655 62.5571M45.2655 55.5259L52.2967 62.5571M75.7341 55.5259L68.7029 62.5571M68.7029 55.5259L75.7341 62.5571M37.0624 17.8125H83.9375C86.5154 17.8125 88.6247 19.9216 88.6247 22.4997V97.4997C88.6247 100.078 86.5154 102.187 83.9375 102.187H37.0624C34.4843 102.187 32.3749 100.078 32.3749 97.4997V22.4997C32.3749 19.9216 34.4843 17.8125 37.0624 17.8125Z" stroke="#111111" stroke-width="4" stroke-miterlimit="2.613" stroke-linecap="round" stroke-linejoin="round"/>
</g>
<defs>
<clipPath id="clip0_8_689">
<rect width="120" height="120" fill="white" transform="translate(0.5)"/>
</clipPath>
</defs>
</svg>
